<svg width="640" height="479.99999999999994" xmlns="http://www.w3.org/2000/svg">

 <g>
  <title>background</title>
  <rect fill="none" id="canvas_background" height="482" width="642" y="-1" x="-1"/>
 </g>
 <g>
  <title>Layer 1</title>
  <polygon stroke="null" id="svg_3" fill="#F4F8F8" points="277.3247985839844,323.83099365234375 175.7933349609375,323.83099365234375 175.7933349609375,209.25961303710938 194.50074768066406,209.25961303710938 191.2142333984375,215.88223266601562 261.90753173828125,215.88223266601562 258.6210021972656,209.25961303710938 277.3247985839844,209.25961303710938 "/>
  <path stroke="null" id="svg_4" fill="#484B4D" d="m279.983411,199.264392l-32.819408,0c-7.141984,-4.306777 -6.339384,-13.350752 -6.339384,-13.350752l-0.051153,0.019856c0.029539,-0.36509 0.128243,-0.703918 0.128243,-1.074773c0,-7.545186 -6.885498,-13.66332 -15.371872,-13.66332c-8.501504,0 -15.379797,6.118134 -15.379797,13.66332c0,0.371495 0.098704,0.709683 0.124641,1.074773l-0.036744,-0.019856c0,0 0.791793,9.043975 -6.350191,13.350752l-32.833817,0c-6.181602,0 -11.19893,4.274111 -11.19893,9.558303l0,126.975622c0,5.291238 5.016608,9.565349 11.19893,9.565349l108.930202,0c6.189527,0 11.206135,-4.274111 11.206135,-9.565349l0,-126.975622c-0.001441,-5.283552 -5.017328,-9.558303 -11.206855,-9.558303zm-54.465101,-25.462762c6.739243,0 12.216949,4.847366 12.216949,10.854692c0,5.988111 -5.477706,10.848287 -12.216949,10.848287c-6.742845,0 -12.206142,-4.860176 -12.206142,-10.848287c0,-6.006686 5.463297,-10.854692 12.206142,-10.854692zm50.437694,151.109329l-100.871785,0l0,-117.345581l18.585873,0l-3.265154,6.782341l70.23395,0l-3.265154,-6.782341l18.58227,0l0,117.345581zm-50.437694,-131.732035c5.295428,0 9.596613,-3.825115 9.596613,-8.522602c0,-4.710938 -4.301905,-8.529007 -9.596613,-8.529007c-5.295428,0 -9.593731,3.818069 -9.593731,8.529007c0,4.698127 4.298303,8.522602 9.593731,8.522602zm0.010807,-14.711832c3.968329,0 7.185932,2.86051 7.185932,6.391631c0,3.537527 -3.217603,6.398036 -7.185932,6.398036c-3.979857,0 -7.201062,-2.86051 -7.201062,-6.398036c0.00072,-3.531762 3.221205,-6.391631 7.201062,-6.391631z"/>
  <rect stroke="null" id="svg_7" fill="#484B4D" y="227.415" x="238.345001" width="35.132995" height="5.198"/>
  <rect stroke="null" id="svg_8" fill="#484B4D" y="254.606" x="238.345001" width="35.132995" height="5.198"/>
  <rect stroke="null" id="svg_9" fill="#484B4D" y="281.797" x="238.345001" width="35.132994" height="5.209"/>
  <rect stroke="null" id="svg_10" fill="#484B4D" y="308.988" x="238.345001" width="35.132993" height="5.198"/>
  <polygon id="svg_12" fill="#FC6E51" points="200.3560028076172,223.28500366210938 202.4010009765625,221.25100708007812 209.66400146484375,228.5240020751953 221.3419952392578,216.8459930419922 223.39700317382812,218.89100646972656 209.66400146484375,232.61300659179688 "/>
  <polygon id="svg_13" fill="#FC6E51" points="200.3560028076172,250.48599243164062 202.4010009765625,248.45199584960938 209.66400146484375,255.72500610351562 221.3419952392578,244.0469970703125 223.39700317382812,246.08200073242188 209.66400146484375,259.80499267578125 "/>
  <polygon id="svg_14" fill="#FC6E51" points="200.3560028076172,277.6780090332031 202.4010009765625,275.63299560546875 209.66400146484375,282.9159851074219 221.3419952392578,271.2380065917969 223.39700317382812,273.2720031738281 209.66400146484375,287.0060119628906 "/>
  <polygon id="svg_15" fill="#FC6E51" points="200.3560028076172,304.8689880371094 202.4010009765625,302.8340148925781 209.66400146484375,310.11700439453125 221.3419952392578,298.42999267578125 223.39700317382812,300.4840087890625 209.66400146484375,314.1969909667969 "/>
 </g>
</svg>